<svg id="visual" viewBox="0 0 900 450" width="900" height="450" xmlns="http://www.w3.org/2000/svg" xmlns:xlink="http://www.w3.org/1999/xlink" version="1.1"><rect x="0" y="0" width="900" height="450" fill="#273036"></rect><path d="M0 330L21.5 325.2C43 320.3 86 310.7 128.8 318.3C171.7 326 214.3 351 257.2 365.7C300 380.3 343 384.7 385.8 378.2C428.7 371.7 471.3 354.3 514.2 337.7C557 321 600 305 642.8 306.2C685.7 307.3 728.3 325.7 771.2 341.7C814 357.7 857 371.3 878.5 378.2L900 385L900 451L878.5 451C857 451 814 451 771.2 451C728.3 451 685.7 451 642.8 451C600 451 557 451 514.2 451C471.3 451 428.7 451 385.8 451C343 451 300 451 257.2 451C214.3 451 171.7 451 128.8 451C86 451 43 451 21.5 451L0 451Z" fill="#FFFFFF" stroke-linecap="round" stroke-linejoin="miter"></path></svg>